<svg preserveAspectRatio="none" width="100%" height="100%" overflow="visible" style="display: block;" viewBox="0 0 12.8574 15" fill="none" xmlns="http://www.w3.org/2000/svg">
<path id="Exclude" d="M6.42871 0C8.13361 3.5227e-05 9.76905 0.646132 10.9746 1.79688C12.1802 2.94767 12.8574 4.50925 12.8574 6.13672C12.8571 10.8985 6.45776 14.9815 6.42871 15C6.42871 15 0.000318824 10.9093 0 6.13672C2.54059e-08 4.50925 0.677222 2.94767 1.88281 1.79688C3.08839 0.646187 4.72383 0 6.42871 0ZM6.42871 3.41016C5.04806 3.41016 3.92881 4.47802 3.92871 5.7959C3.92871 7.11385 5.048 8.18262 6.42871 8.18262C7.80936 8.18255 8.92871 7.11381 8.92871 5.7959C8.92861 4.47807 7.8093 3.41023 6.42871 3.41016Z" fill="var(--fill-0, #E05D2E)"/>
</svg>
